<?xml version="1.0" encoding="iso-8859-1"?><!DOCTYPE svg PUBLIC "-//W3C//DTD SVG 1.1//EN" "http://www.w3.org/Graphics/SVG/1.1/DTD/svg11.dtd"><svg width="306" height="306" viewBox="0 0 306 306" xmlns="http://www.w3.org/2000/svg" xmlns:xlink="http://www.w3.org/1999/xlink"><svg width="305.934" height="305.934" viewBox="0 0 305.934 305.934" id="L1VzZXJzL2FuZHJldy9Db2RlL3Bvc3Rjc3Mtc2NhZi9kaXN0L2ltYWdlcy9waXp6YS5zdmc=" xmlns="http://www.w3.org/2000/svg"><path d="M34.989 160.926c0 20.143 5.059 39.105 13.963 55.686l93.405-53.925-94.801-54.735a117.512 117.512 0 0 0-12.567 52.974zm29.572 29.137c-2.97 1.403-6.113 2.304-9.29 3.102-1.411.357-5.217 1.005-5.784-1.108-.557-2.082 3.047-3.5 4.453-3.853 2.296-.58 4.469-1.181 6.618-2.195 1.711-.813 5.217-1.527 6.765.047 1.65 1.672-1.649 3.479-2.762 4.007zm40.501-36.552a8.011 8.011 0 1 1 0 16.022 8.012 8.012 0 0 1-8.013-8.011c-.006-4.428 3.585-8.011 8.013-8.011zm-22.116 12.034c0 6.659-5.393 12.044-12.047 12.044-6.651 0-12.05-5.396-12.05-12.044s5.394-12.042 12.05-12.042c6.654 0 12.047 5.388 12.047 12.042zm-24.097-41.57a8.013 8.013 0 0 1 8.019 8.014c0 4.427-3.588 8.01-8.019 8.01a8.01 8.01 0 0 1-8.01-8.01c0-4.423 3.583-8.014 8.01-8.014zM43.887 158.71c-6.876 0 .917-4.981 4.205-4.981 6.876 0-.917 4.981-4.205 4.981zM147.665 37.117v-21.21C97.727 17.709 54.153 44.843 29.427 84.833l18.377 10.61c21.036-33.66 57.755-56.545 99.861-58.326zM268.74 79.542l18.377-10.61C262.396 28.936 218.817 1.802 168.879 0v21.21c42.104 1.781 78.822 24.666 99.861 58.332zM275.238 239.002l-18.382-10.615c-21.221 32.575-57.317 54.598-98.587 56.338v21.209c49.105-1.771 92.041-28.039 116.969-66.932zM263.359 104.681a123.11 123.11 0 0 1 13.552 56.245c0 21.086-5.308 40.949-14.634 58.348l18.383 10.615c11.128-20.526 17.455-44.025 17.455-68.963 0-24.104-5.935-46.833-16.378-66.862l-18.378 10.617z"/><path d="M43.66 219.273a123.264 123.264 0 0 1-14.631-58.348c0-20.249 4.911-39.354 13.554-56.252L24.2 94.059c-10.441 20.028-16.381 42.758-16.381 66.857 0 24.942 6.328 48.436 17.458 68.962l18.383-10.605zM147.665 305.934v-21.209c-41.267-1.745-77.361-23.763-98.586-56.338l-18.377 10.615c24.924 38.893 67.863 65.161 116.963 66.932zM147.665 43.082c-40.097 1.771-74.979 23.558-94.923 55.616l94.923 54.805V43.082zM89.18 101.98c-6.648 0-12.042-5.393-12.042-12.042 0-6.654 5.393-12.047 12.042-12.047 6.654 0 12.047 5.393 12.047 12.047.005 6.655-5.393 12.042-12.047 12.042zm35.939 21.995c-4.422 0-8.011-3.583-8.011-8.01s3.588-8.013 8.011-8.013c4.427 0 8.018 3.586 8.018 8.013a8.016 8.016 0 0 1-8.018 8.01zm-.319-29.821c-1.524-1.888-3.254-2.864-5.571-3.495-2.322-.635-2.783-3.102-1.29-4.798 1.755-1.988 4.751-2.625 7.244-1.939 3.602.984 6.659 2.874 9.007 5.784 3.222 3.977-6.547 7.964-9.39 4.448zm4.037-19.024a8.013 8.013 0 1 1 0-16.024c4.427 0 8.018 3.583 8.018 8.01a8.014 8.014 0 0 1-8.018 8.014zM270.945 160.926c0-19.061-4.541-37.042-12.567-52.975l-94.801 54.735 93.408 53.936c8.901-16.591 13.96-35.554 13.96-55.696zm-16.016-34.189c6.856 0-1.248 4.619-4.298 4.619-6.845-.005 1.253-4.619 4.298-4.619zm-50.02 43.562a8.012 8.012 0 0 1-8.011-8.016 8.013 8.013 0 0 1 8.011-8.011 8.01 8.01 0 0 1 8.016 8.011 8.01 8.01 0 0 1-8.016 8.016zm22.033-16.146c5.007 0-4.541 4.132-6.654 4.132-5.002 0 4.546-4.132 6.654-4.132zm-4.614 26.346c-6.928 0-.145-6.136 3.899-6.136 6.934-.006.14 6.136-3.899 6.136zm21.116 20.091a8.01 8.01 0 0 1-8.016-8.016c0-4.422 3.594-8.005 8.016-8.005 4.428 0 8.016 3.583 8.016 8.005a8.012 8.012 0 0 1-8.016 8.016zm4.034-31.669c-6.648 0-12.039-5.391-12.039-12.039 0-6.654 5.391-12.047 12.039-12.047 6.653 0 12.05 5.393 12.05 12.047-.011 6.653-5.402 12.039-12.05 12.039z"/><path d="M147.665 278.77V171.873l-93.273 53.852c20.191 30.644 54.263 51.315 93.273 53.045zm-16.91-8.544c-6.902 0 .611-5.317 4.117-5.317 6.902-.001-.611 5.317-4.117 5.317zm-1.918-69.636c4.427 0 8.018 3.584 8.018 8.011 0 4.428-3.591 8.011-8.018 8.011a8.012 8.012 0 1 1 0-16.022zm-20.612 18.745c6.937 0 .319 6.328-3.847 6.328-6.931 0-.318-6.328 3.847-6.328zm4.847 10.554c6.656 0 12.047 5.39 12.047 12.044 0 6.653-5.391 12.044-12.047 12.044-6.649 0-12.042-5.396-12.042-12.044 0-6.655 5.393-12.044 12.042-12.044zM78.91 220.65c4.427 0 8.018 3.583 8.018 8.011 0 4.427-3.591 8.011-8.018 8.011a8.01 8.01 0 1 1 0-16.022zM251.542 225.725l-93.273-53.852V278.77c39.018-1.73 73.09-22.401 93.273-53.045zm-76.04 36.262a8.013 8.013 0 0 1-8.011-8.011 8.01 8.01 0 0 1 8.011-8.016 8.017 8.017 0 0 1 8.021 8.016c0 4.422-3.594 8.011-8.021 8.011zm5.421-33.321c-6.648 0-12.049-5.396-12.049-12.044 0-6.649 5.39-12.045 12.049-12.045 6.654 0 12.045 5.396 12.045 12.045s-5.39 12.044-12.045 12.044zm12.185 17.745c-4.986 0 4.582-4.08 6.669-4.08 4.976 0-4.582 4.08-6.669 4.08zm30.276-8.517c-4.428 0-8.016-3.583-8.016-8.005a8.016 8.016 0 0 1 8.016-8.017 8.013 8.013 0 0 1 8.016 8.017c0 4.422-3.589 8.005-8.016 8.005zM168.875 27.175v110.421L263.8 82.791c-19.941-32.058-54.821-53.845-94.925-55.616zm30.721 15.907c4.433 0 8.016 3.583 8.016 8.011s-3.583 8.013-8.016 8.013a8.013 8.013 0 0 1-8.011-8.013 8.004 8.004 0 0 1 8.011-8.011zm-17.181-7.498c6.934 0 .611 6.639-3.759 6.639-6.934 0-.612-6.639 3.759-6.639zm5.136 74.754c-6.648 0-12.049-5.393-12.049-12.042s5.391-12.042 12.049-12.042c6.654 0 12.045 5.393 12.045 12.042s-5.39 12.042-12.045 12.042zm12.345-35.744c-2.02 1.598-5.183 2.032-7.373.531-2.263-1.553-5.101-1.937-7.741-2.455-2.217-.44-4.293-2.18-3.216-4.65 1.025-2.335 4.204-3.708 6.648-3.226 4.251.844 8.503 1.678 12.138 4.174 2.164 1.481 1.284 4.254-.456 5.626zm6.618 18.755c-6.929 0-.771-6.814 3.718-6.814 6.929-.006.771 6.814-3.718 6.814zm16.87-11.136c-4.428 0-8.016-3.583-8.016-8.011s3.594-8.013 8.016-8.013a8.012 8.012 0 1 1 0 16.024zm14.131-3.484c-4.986 0 4.583-4.086 6.67-4.086 4.986-.005-4.583 4.086-6.67 4.086z"/></svg></svg>